<svg xmlns="http://www.w3.org/2000/svg" width="30.001" height="29.999" viewBox="0 0 30.001 29.999"><path d="M5618,60a15,15,0,1,1,10.608-4.393A14.9,14.9,0,0,1,5618,60Zm-3.446-23A4.558,4.558,0,0,0,5610,41.554v6.594a4.559,4.559,0,0,0,4.553,4.556h6.6a4.56,4.56,0,0,0,4.554-4.556V41.554A4.559,4.559,0,0,0,5621.148,37Zm6.753,14.131H5614.4a2.829,2.829,0,0,1-2.826-2.826V41.4a2.829,2.829,0,0,1,2.826-2.826h6.909a2.829,2.829,0,0,1,2.825,2.826v6.909A2.829,2.829,0,0,1,5621.306,51.132Zm-3.455-10.207a3.925,3.925,0,1,0,3.927,3.927A3.93,3.93,0,0,0,5617.851,40.925Zm4.122-1.178a.982.982,0,1,0,.98.983A.983.983,0,0,0,5621.973,39.747Zm-4.122,7.458a2.355,2.355,0,1,1,2.356-2.354A2.356,2.356,0,0,1,5617.851,47.206Z" transform="translate(-5603 -30.001)" fill="#ffffff"/></svg>