<?xml version="1.0" encoding="utf-8"?>
<!-- Generator: Adobe Illustrator 23.0.1, SVG Export Plug-In . SVG Version: 6.00 Build 0)  -->
<svg version="1.1" xmlns="http://www.w3.org/2000/svg" xmlns:xlink="http://www.w3.org/1999/xlink" x="0px" y="0px"
	 viewBox="0 0 727.5 184.1" style="enable-background:new 0 0 727.5 184.1;" xml:space="preserve">
<style type="text/css">
	.st0{fill:#FFFFFF;}
	.st1{fill:none;stroke:#FFFFFF;stroke-width:1.5665;}
</style>
<g id="Layer_2">
</g>
<g id="Layer_1">
	<g>
		<g>
			<path class="st0" d="M154.7,85.7V57.9h4.5v27.8H154.7z"/>
			<path class="st0" d="M172.3,85.7V61.3h-8.9v-3.4h22.3v3.4h-8.8v24.3L172.3,85.7L172.3,85.7z"/>
			<path class="st0" d="M186.6,76.5v-3.3h10.8v3.3H186.6z"/>
			<path class="st0" d="M207.6,60.6v5.2h5.9v3h-5.9v10.5c0,2,0.6,3.2,2.7,3.2c0.9,0,2.1-0.2,3.6-0.6l0.6,2.9
				c-1.5,0.7-3.6,1.1-5.3,1.1c-4.4,0-6-2.1-6-5.3V68.8h-2.8v-2.4l3.1-0.9c0.1-0.3,1.1-4.3,1.2-4.5L207.6,60.6z"/>
			<path class="st0" d="M234.4,74.9v1.6h-13.2c0,3.4,1.3,6.1,5.4,6.1c2.2,0,4.2-0.5,6.4-1.3l1,2.8c-2.5,1.3-5.1,1.9-7.9,1.9
				c-7.4,0-9.3-4.7-9.3-10.2c0-3.9,1.5-10.4,9.2-10.4C234.1,65.4,234.4,72,234.4,74.9z M221.4,74.1h9c0-3.4-1-5.7-4.3-5.7
				C222.6,68.4,221.6,71.1,221.4,74.1z"/>
			<path class="st0" d="M254.6,82.6h2.6l0.2,2.5c-1.1,0.6-2.8,0.9-4.1,0.9c-1.7,0-2.7-0.4-2.8-2.4c0,0,0,0-0.1-0.1
				c-2.9,2.5-5.7,2.6-6.9,2.6c-4.7,0-6-3.4-6-5.7c0-3.8,3.5-5.8,7.9-6l4.8-0.3V73c0-2.9-0.9-4-4-4c-1.9,0-4.3,0.4-6.2,1
				c-0.2-0.9-0.5-1.9-0.8-2.8c2.3-1,5.4-1.6,8.1-1.6c4.5,0,7.2,1.7,7.2,6.7L254.6,82.6L254.6,82.6z M245.8,76.8
				c-2.4,0.2-3.4,1.3-3.4,3c0,2.1,0.9,3.1,3.2,3.1c1.5,0,3.2-0.8,4.8-2.2v-4.3L245.8,76.8z"/>
			<path class="st0" d="M274,66.7v-10h4.4v28.9h-4.2v-1.8c0,0,0-0.1-0.1-0.1c-1.8,1.5-4.2,2.2-6.1,2.2c-5.9,0-7.6-4.5-7.6-9.8
				c0-6.1,2.2-10.8,8.3-10.8C270,65.4,272.4,65.7,274,66.7z M274,70c-0.9-0.6-3-1.3-4.5-1.3c-2.4,0-4.6,1.5-4.6,7.4
				c0,5.2,1.9,6.6,4.5,6.6c1.4,0,3.7-1,4.7-1.8V70H274z"/>
			<path class="st0" d="M282.9,79.6V65.8h4.4v12.7c0,2.2,0.2,4.1,3.1,4.1c1.3,0,3.4-0.7,5.1-2.2V65.8c1.5,0,3,0,4.4,0v19.9h-4.2
				l-0.1-2.2l-0.1-0.1c-2.5,2.2-5.2,2.7-6.7,2.7C283.4,86.1,282.9,82.9,282.9,79.6z"/>
			<path class="st0" d="M318.4,66.9c-0.3,0.6-0.9,2.3-1.1,2.9c-2.1-0.8-3.8-1.1-5.2-1.1c-1.8,0-3.5,0.7-3.5,2.5
				c0,1.5,2.3,2.2,3.9,2.6c3.3,1,7,1.9,7,6.3c0,3.9-3.2,5.8-8.5,5.8c-2.3,0-5.5-0.5-7.5-1.6l1.2-2.9c2.8,1.2,5.1,1.3,6.4,1.3
				c2.2,0,4-0.7,4-2.7c0-1.9-1.9-2.4-4-3.1c-3.5-1.2-6.9-2.1-6.9-5.9s3.1-5.8,7.7-5.8C313.9,65.4,316.5,65.8,318.4,66.9z"/>
			<path class="st0" d="M327.7,73.4l7.3-7.6h5l-7.6,7.8l1.4,1.7l6.8,10.4h-4.9c-2-3.1-4-6.3-6-9.4l-2,2v7.4h-4.5V56.8h4.5v12.4
				c0,1.5-0.1,2.8-0.1,4.1L327.7,73.4z"/>
			<path class="st0" d="M351.7,86c-6.9,0-9.2-4.7-9.2-10.2c0-5.4,2.6-10.4,9.5-10.4c7,0,9.2,5,9.2,10.4C361.3,81,358.9,86,351.7,86z
				 M352,68.6c-3.9,0-4.9,3.7-4.9,7.2c0,3.8,0.8,7,4.9,7c3.9,0,4.6-3.5,4.6-7C356.6,72.4,356,68.6,352,68.6z"/>
			<path class="st0" d="M378.2,85.7V72.9c0-2.7-0.5-4.1-3.2-4.1c-1.6,0-3.8,0.9-5.4,1.7v15h-4.5V65.8h4.3v1.7l0.2,0.1
				c2.3-1.5,5-2.3,6.9-2.3c5.4,0,6,3.3,6,6.6v13.7h-4.3V85.7z"/>
			<path class="st0" d="M400,85.7V72.9c0-2.7-0.5-4.1-3.2-4.1c-1.6,0-3.8,0.9-5.4,1.7v15h-4.5V65.8h4.3v1.7l0.2,0.1
				c2.3-1.5,5-2.3,6.9-2.3c5.4,0,6,3.3,6,6.6v13.7H400V85.7z"/>
			<path class="st0" d="M425.1,82.6h2.6l0.2,2.5c-1.1,0.6-2.8,0.9-4.1,0.9c-1.7,0-2.7-0.4-2.8-2.4c0,0,0,0-0.1-0.1
				c-2.9,2.5-5.7,2.6-6.9,2.6c-4.7,0-6-3.4-6-5.7c0-3.8,3.5-5.8,7.9-6l4.8-0.3V73c0-2.9-0.9-4-4-4c-2,0-4.3,0.4-6.2,1
				c-0.2-0.9-0.5-1.9-0.8-2.8c2.3-1,5.4-1.6,8.1-1.6c4.5,0,7.2,1.7,7.2,6.7L425.1,82.6L425.1,82.6z M416.3,76.8
				c-2.4,0.2-3.4,1.3-3.4,3c0,2.1,0.9,3.1,3.2,3.1c1.5,0,3.2-0.8,4.8-2.2v-4.3L416.3,76.8z"/>
			<path class="st0" d="M153.4,118v-13.7h4.4V117c0,2.2,0.2,4.1,3.1,4.1c1.3,0,3.4-0.7,5.1-2.2v-14.5c1.5,0,3,0,4.4,0V124h-4.2
				l-0.1-2.2l-0.1-0.1c-2.5,2.2-5.2,2.7-6.7,2.7C153.9,124.5,153.4,121.2,153.4,118z M158.1,101.3c-1.4,0-2.3-0.9-2.3-2.1
				s0.9-2.1,2.2-2.1c1.5,0,2.4,0.8,2.4,2.1C160.4,100.4,159.5,101.3,158.1,101.3z M166,101.3c-1.3,0-2.1-0.9-2.1-2.1
				s0.9-2.1,2.1-2.1c1.5,0,2.4,0.8,2.4,2.1C168.4,100.4,167.5,101.3,166,101.3z"/>
			<path class="st0" d="M179.8,124h-4.4V95.2h4.4V124z"/>
			<path class="st0" d="M188.2,101.4c-1.6,0-2.7-1.2-2.7-2.6c0-1.5,1.1-2.6,2.7-2.6c1.7,0,2.8,1.1,2.8,2.6
				C190.9,100.3,189.8,101.4,188.2,101.4z M185.9,124v-19.8h4.4V124H185.9z"/>
			<path class="st0" d="M204.7,124.4c-6.9,0-9.2-4.7-9.2-10.2c0-5.4,2.6-10.4,9.5-10.4c7,0,9.2,5,9.2,10.4
				C214.3,119.4,211.9,124.4,204.7,124.4z M201.8,99.4l-2.3,1.6l-1.4-1.1c0.8-2.2,2.1-3.4,3.8-3.4c2.1,0,4.7,1.5,6.4,1.5l2.3-1.6
				l1.4,1.1c-0.7,2.1-2.1,3.4-3.8,3.4C205.6,101,203.4,99.4,201.8,99.4z M205,107c-3.9,0-4.9,3.7-4.9,7.2c0,3.8,0.8,7,4.9,7
				c3.9,0,4.6-3.5,4.6-7C209.6,110.8,209,107,205,107z"/>
			<path class="st0" d="M222.7,106.1c1.8-1.4,4-2.2,6-2.2c5.9,0,7.6,4.5,7.6,10c0,5.8-2.2,10.4-8.2,10.4c-1.5,0-3.9-0.2-5.5-1.3v9.4
				h-4.4v-28.3h4.2l0.1,1.8L222.7,106.1z M231.9,113.8c0-5.1-1.9-6.5-4.5-6.5c-1.5,0-3.8,1-4.7,1.8v10.8c0.9,0.6,2.9,1.3,4.5,1.3
				C229.6,121.2,231.9,119.5,231.9,113.8z"/>
			<path class="st0" d="M243.6,101.4c-1.6,0-2.7-1.2-2.7-2.6c0-1.5,1.1-2.6,2.7-2.6c1.7,0,2.8,1.1,2.8,2.6
				C246.4,100.3,245.3,101.4,243.6,101.4z M241.4,124v-19.8h4.4V124H241.4z"/>
			<path class="st0" d="M256.4,124H252V95.2h4.4V124z"/>
			<path class="st0" d="M277.7,121h2.6l0.2,2.5c-1.1,0.6-2.8,0.9-4.1,0.9c-1.7,0-2.7-0.4-2.8-2.4c0,0,0,0-0.1-0.1
				c-2.9,2.5-5.7,2.6-6.9,2.6c-4.7,0-6-3.4-6-5.7c0-3.8,3.5-5.8,7.9-6l4.8-0.3v-1.1c0-2.9-0.9-4-4-4c-1.9,0-4.3,0.4-6.2,1.1
				c-0.2-0.9-0.5-1.9-0.8-2.8c2.3-1,5.4-1.6,8.1-1.6c4.5,0,7.2,1.7,7.2,6.7L277.7,121L277.7,121z M268.9,115.2
				c-2.4,0.2-3.4,1.3-3.4,3c0,2.1,0.9,3.1,3.2,3.1c1.5,0,3.2-0.8,4.8-2.2v-4.3L268.9,115.2z"/>
			<path class="st0" d="M298,105.2c-0.3,0.6-0.9,2.3-1.1,2.9c-2.1-0.8-3.8-1.1-5.2-1.1c-1.8,0-3.5,0.7-3.5,2.5
				c0,1.5,2.3,2.2,3.9,2.6c3.3,1,7,1.9,7,6.3c0,3.9-3.2,5.8-8.5,5.8c-2.3,0-5.5-0.5-7.5-1.6l1.2-2.9c2.8,1.2,5.1,1.3,6.4,1.3
				c2.2,0,4-0.7,4-2.7c0-1.9-1.9-2.4-4-3.1c-3.5-1.2-6.9-2.1-6.9-5.9s3.1-5.8,7.7-5.8C293.4,103.8,296.1,104.1,298,105.2z"/>
			<path class="st0" d="M307.2,111.8l7.3-7.6h5l-7.6,7.8l1.4,1.7l6.8,10.4h-4.9c-2-3.1-4-6.3-6-9.4l-2,2v7.4h-4.5V95.2h4.5v12.4
				c0,1.5-0.1,2.8-0.1,4.1L307.2,111.8z"/>
			<path class="st0" d="M331.3,124.4c-6.9,0-9.2-4.7-9.2-10.2c0-5.4,2.6-10.4,9.5-10.4c7,0,9.2,5,9.2,10.4
				C340.8,119.4,338.5,124.4,331.3,124.4z M331.6,107c-3.9,0-4.9,3.7-4.9,7.2c0,3.8,0.8,7,4.9,7c3.9,0,4.6-3.5,4.6-7
				C336.2,110.8,335.5,107,331.6,107z"/>
			<path class="st0" d="M347.6,116.1c-1.4-0.8-2.5-2.4-2.5-5.1c0-5.2,4.3-7.3,8.4-7.3c1.5,0,2.9,0.2,4,0.5h6.7v2.5h-3l-0.1,0.2
				c0.9,1,1.2,2.5,1.2,3.9c0,4.5-3.8,6.8-8.7,6.8h-2.2c-1.7,0-2.9,0.3-2.9,1.4c0,0.7,0.8,1.2,1.9,1.2h5.5c4.9,0,7.7,2,7.7,6
				c0,3.8-3.5,6.6-10.5,6.6c-7.3,0-8.8-2.9-8.8-5.8c0-2.1,1.3-3.8,2.6-4.5c-1.5-0.4-2.4-1.4-2.4-2.9
				C344.5,117.4,346.1,116.5,347.6,116.1L347.6,116.1z M350.7,123.1c-1,0.4-2.1,1.9-2.1,3.2c0,1.8,0.9,3.4,5.2,3.4
				c3.5,0,5.4-1.4,5.4-3.4c0-1.5-0.6-3.2-4.1-3.2H350.7z M353.7,106.7c-2.8,0-4.2,1.6-4.2,4.1c0,2.4,1.5,4,3.9,4
				c2.6,0,4.6-1.2,4.6-4C358,108.8,357,106.7,353.7,106.7z"/>
			<path class="st0" d="M367.9,118v-13.7h4.4V117c0,2.2,0.2,4.1,3.1,4.1c1.3,0,3.4-0.7,5.1-2.2v-14.5c1.5,0,3,0,4.4,0V124h-4.2
				l-0.1-2.2l-0.1-0.1c-2.5,2.2-5.2,2.7-6.7,2.7C368.5,124.5,367.9,121.2,367.9,118z"/>
		</g>
		<path class="st0" d="M33,41.7v101h101v-101C134,41.7,33,41.7,33,41.7z M85,94.7l-39,22.9v-16.4l17.4-10.3L46,79.9V64.3l39,23.4
			V94.7z M121,127.7H88v-13h33V127.7z"/>
	</g>
	<g>
		<line class="st1" x1="461.5" y1="41.7" x2="461.5" y2="142.7"/>
		<g>
			<polygon class="st0" points="516.1,90.5 516.1,54.2 502.9,54.2 502.9,41.1 544,41.1 544,54.2 530.9,54.2 530.9,90.5 			"/>
			<path class="st0" d="M573.5,90.5l-1.8-5.8H554l-1.8,5.8h-16.8l18.1-49.4h18.7l18.1,49.4H573.5z M562.9,55.8L558,71.7h9.7
				L562.9,55.8z"/>
			<polygon class="st0" points="593,90.5 593,41.1 607.9,41.1 607.9,77.5 626.5,77.5 626.5,90.5 			"/>
			<polygon class="st0" points="516.1,142.9 516.1,106.6 502.9,106.6 502.9,93.6 544,93.6 544,106.6 530.9,106.6 530.9,142.9 			"/>
			<path class="st0" d="M587.2,118.3c0-15.2,11.6-25.5,27-25.5c12.9,0,19.3,7.6,22.3,14.4l-12.8,6c-1.3-3.8-5.1-7.2-9.5-7.2
				c-7.1,0-11.9,5.5-11.9,12.4s4.8,12.4,11.9,12.4c4.4,0,8.2-3.3,9.5-7.2l12.8,5.9c-2.9,6.6-9.4,14.4-22.3,14.4
				C598.8,143.8,587.2,133.5,587.2,118.3"/>
			<polygon class="st0" points="671.5,142.9 671.5,124.1 653.9,124.1 653.9,142.9 639,142.9 639,93.6 653.9,93.6 653.9,111 
				671.5,111 671.5,93.6 686.3,93.6 686.3,142.9 			"/>
			<polygon class="st0" points="547.4,142.9 547.4,93.6 584.6,93.6 584.6,106.6 562.3,106.6 562.3,111.5 584.1,111.5 584.1,124.5 
				562.3,124.5 562.3,129.9 584.6,129.9 584.6,142.9 			"/>
		</g>
	</g>
</g>
</svg>
